PathFileType	4	(X/Y/Z)	C:\Users\Basilio\Documents\Thesis Gigler\squatting_fais\c3dfiles\038\SJ_pre2\markers_experimental.trc
DataRate	CameraRate	NumFrames	NumMarkers	Units	OrigDataRate	OrigDataStartFrame	OrigNumFrames
200.000000	200.000000	4	61	mm	200.000000	1158	1854
Frame#	Time	FHD			LBHD			RBHD			C7			T10			LSHO			LUUPA			LMUPA			LDUPA			LLEP			LMEP			LRAD			LUL			LRFIN			RSHO			RUPA1			RMUPA			RDUPA			RLEP			RMEP			RRAD			RUL			RUFIN			LASI			RASI			USACR			LSACR			RSACR			LTHI1			LTHI2			LTHI3			LTHI4			LLFC			LMFC			LTIB1			LTIB2			LTIB3			LTIB4			LLMAL			LMMAL			LHEE			LMT1			LMT2			LMT5			RTHI			RTHI2			RTHI3			RTHI4			RLFC			RMFC			RTIB1			RTIB2			RTIB3			RTIB4			RLMAL			RMMAL			RHEE			RMT1			RMT2			RMT5			CLAV			
		X1	Y1	Z1	X2	Y2	Z2	X3	Y3	Z3	X4	Y4	Z4	X5	Y5	Z5	X6	Y6	Z6	X7	Y7	Z7	X8	Y8	Z8	X9	Y9	Z9	X10	Y10	Z10	X11	Y11	Z11	X12	Y12	Z12	X13	Y13	Z13	X14	Y14	Z14	X15	Y15	Z15	X16	Y16	Z16	X17	Y17	Z17	X18	Y18	Z18	X19	Y19	Z19	X20	Y20	Z20	X21	Y21	Z21	X22	Y22	Z22	X23	Y23	Z23	X24	Y24	Z24	X25	Y25	Z25	X26	Y26	Z26	X27	Y27	Z27	X28	Y28	Z28	X29	Y29	Z29	X30	Y30	Z30	X31	Y31	Z31	X32	Y32	Z32	X33	Y33	Z33	X34	Y34	Z34	X35	Y35	Z35	X36	Y36	Z36	X37	Y37	Z37	X38	Y38	Z38	X39	Y39	Z39	X40	Y40	Z40	X41	Y41	Z41	X42	Y42	Z42	X43	Y43	Z43	X44	Y44	Z44	X45	Y45	Z45	X46	Y46	Z46	X47	Y47	Z47	X48	Y48	Z48	X49	Y49	Z49	X50	Y50	Z50	X51	Y51	Z51	X52	Y52	Z52	X53	Y53	Z53	X54	Y54	Z54	X55	Y55	Z55	X56	Y56	Z56	X57	Y57	Z57	X58	Y58	Z58	X59	Y59	Z59	X60	Y60	Z60	X61	Y61	Z61	

1159	5.79	-105.619255065918	1255.934326171875	-945.771423339844	-245.9240875244141	1164.6806640625	-996.306823730469	-227.2030029296876	1160.797729492188	-850.9273071289065	-270.2355346679688	1062.669311523438	-915.8430786132815	-457.8211975097657	863.8934326171877	-901.983093261719	-163.8151397705078	1011.569213867188	-1084.709106445313	-221.7323150634766	879.1384277343752	-1275.06201171875	-221.7414093017579	834.2359619140627	-1254.380249023438	-242.4705505371094	822.3411865234377	-1308.243408203125	-276.3408203125001	767.7580566406251	-1326.45458984375	-348.0935974121094	808.401062011719	-1351.5234375	-490.5479431152345	694.1409912109376	-1128.401977539063	-443.1128845214845	638.3589477539064	-1141.656005859375	-489.3353576660157	681.2456054687501	-1049.948486328125	-140.3564910888672	1001.903381347656	-773.7957763671877	-182.2637786865235	875.2188720703127	-586.6907958984376	-201.190414428711	831.846618652344	-595.5435180664064	-211.5478057861329	834.2156982421877	-536.6010131835939	-251.8468475341797	780.126892089844	-502.2847900390626	-318.4719543457032	828.1188964843752	-476.8218078613282	-458.583953857422	681.4016113281251	-667.8329467773439	-410.2092895507814	628.2683715820314	-660.8978271484376	-455.9059448242189	675.8398437500001	-741.2260742187501	-464.950897216797	652.5431518554689	-1020.359741210938	-447.6113891601564	664.6766967773439	-774.706726074219	-584.4421997070314	762.7694702148439	-888.460876464844	-616.5501708984376	743.7198486328126	-913.0960083007815	-608.2028198242189	743.2111816406251	-856.6619873046877	-398.5227050781251	557.3432006835939	-1169.642822265625	-316.7424926757813	548.6030883789064	-1199.688354492188	-289.0615844726563	578.9555053710939	-1172.801391601563	-289.6894531250001	494.5301513671876	-1212.283569335938	-246.2639465332032	456.1492004394532	-1215.798217773438	-212.8403930664063	443.1416931152345	-1111.059692382813	-241.096420288086	281.6268310546876	-1138.447998046875	-310.5715942382813	256.2369689941407	-1189.108642578125	-276.8134155273438	241.8104095458985	-1164.472290039063	-311.5651855468751	177.4678497314453	-1121.05322265625	-439.3864135742189	81.8952102661133	-1119.396850585938	-389.7859497070314	98.41699981689456	-1051.974609375	-484.405731201172	44.61533737182618	-1058.899780273438	-276.2971496582032	45.44518661499024	-1093.917114257813	-279.2472534179688	50.31135940551759	-1144.5634765625	-328.2417297363282	30.75596427917481	-1183.712036132813	-402.2012634277345	537.4224853515626	-671.3586425781251	-337.0781250000001	538.4443969726564	-655.7492065429689	-317.6636047363282	566.7924194335939	-659.7918090820314	-285.2314147949219	468.881072998047	-656.8777465820314	-193.4174041748047	423.1004638671876	-652.8923339843751	-181.9273529052735	422.7415771484376	-765.1814575195314	-208.1928863525391	262.5557861328126	-694.0303344726564	-319.4357299804688	226.9691925048829	-670.7653198242189	-276.1705017089844	210.3240814208985	-681.3438720703126	-285.2893981933594	162.9544982910157	-714.3486328125001	-404.1188354492189	87.42636871337892	-700.8911132812501	-363.6909484863282	87.44418334960939	-777.0161743164065	-462.6394958496095	40.07883453369141	-773.5776367187502	-250.9900207519532	47.68443679809571	-715.2091064453126	-264.2423706054688	53.76140213012697	-671.0400390625001	-315.6213989257813	35.9624366760254	-635.6757812500001	-164.9355773925782	961.6690063476565	-929.425720214844	
1160	5.795	-105.6042022705078	1255.69921875	-945.8115234375002	-245.8587341308594	1164.48291015625	-996.320495605469	-227.1641387939454	1160.616943359375	-850.9412231445315	-270.2459411621094	1062.563110351563	-915.8975830078127	-457.8840332031251	863.7946777343752	-902.0498657226565	-163.610580444336	1011.411071777344	-1084.777221679688	-221.6841888427735	878.9888916015627	-1275.108032226563	-222.1928710937501	833.7443847656252	-1254.169799804688	-242.4020233154297	822.1265869140627	-1308.270385742188	-276.4735717773438	767.5988769531251	-1326.415771484375	-348.1106262207032	808.3457031250002	-1351.56494140625	-490.7824707031251	694.1210327148439	-1128.438110351563	-443.3233032226564	638.3756103515626	-1141.689697265625	-489.4515380859376	681.2760009765626	-1050.005737304688	-140.2293548583985	1001.73876953125	-773.8818359375002	-182.2098846435547	875.0794677734377	-586.7259521484376	-201.1065521240235	831.751159667969	-595.6380615234376	-211.5035400390626	833.9622192382815	-536.7214355468751	-251.8526306152344	779.977966308594	-502.4290771484376	-318.4082946777344	828.0764770507815	-476.8665771484376	-458.6174926757814	681.4561767578126	-667.9180908203126	-410.3480529785157	628.2703857421876	-661.0305175781251	-455.9959411621095	675.8800659179689	-741.3347167968751	-465.0835266113282	652.6956176757814	-1020.412475585938	-447.6992797851564	664.6873168945314	-774.754577636719	-584.5314941406251	762.8551025390626	-888.534362792969	-616.7216186523439	743.9486083984376	-913.104675292969	-608.3574218750001	743.3076782226564	-856.7053222656252	-398.6419982910157	557.3881225585939	-1169.61181640625	-316.8368225097657	548.5786743164064	-1199.619995117188	-289.1716003417969	579.0163574218751	-1172.685546875	-289.7714538574219	494.5776367187501	-1212.224365234375	-246.3566131591797	456.191131591797	-1215.703125	-212.848129272461	443.1993103027345	-1110.868041992188	-241.1325683593751	281.6831359863282	-1138.379028320313	-310.5412597656251	256.2650756835938	-1189.07275390625	-276.7990722656251	241.8644256591797	-1164.443115234375	-311.5651550292969	177.4645385742188	-1121.062377929688	-439.3992309570314	81.89564514160158	-1119.3837890625	-389.3524169921876	98.57997894287112	-1051.802124023438	-484.3878479003907	44.58133697509766	-1058.922729492188	-276.2501831054688	45.51563262939454	-1093.905639648438	-279.2768554687501	50.31967163085939	-1144.55859375	-328.2266235351563	30.69462203979493	-1183.717163085938	-402.2818298339845	537.5216064453126	-671.4625854492189	-337.2365722656251	538.5026245117189	-655.9010620117189	-317.7372131347657	566.8858642578126	-659.9291992187501	-285.3841552734376	469.0561523437501	-657.0401611328126	-193.5351257324219	423.216033935547	-653.1181640625001	-181.9796905517578	422.9564514160157	-765.4536132812501	-208.2082977294922	262.6657104492188	-694.1987915039064	-319.4771728515626	227.0173645019532	-670.8497314453126	-276.1835021972657	210.4666442871094	-681.4122924804689	-285.4474182128907	162.9594116210938	-714.4437866210939	-404.0523986816407	87.43499755859376	-700.9069213867189	-363.6250610351563	87.39999389648439	-777.067565917969	-462.6516418457032	40.08928680419923	-773.5655517578127	-250.9700775146485	47.6554069519043	-715.2937622070314	-264.1681518554688	53.641170501709	-671.1127929687501	-315.6148376464844	35.98016357421876	-635.6521606445314	-164.793930053711	961.5058593750002	-929.5367431640627	
1161	5.8	-105.6534271240235	1255.52099609375	-945.8992919921877	-245.8280792236329	1164.277587890625	-996.3731079101565	-227.0765838623047	1160.441162109375	-850.9238281250002	-270.1445312500001	1062.4052734375	-915.9389648437502	-457.8624877929689	863.819030761719	-902.1074218750002	-163.4443664550782	1011.278381347656	-1084.877197265625	-221.7170410156251	878.7145996093752	-1275.095092773438	-221.8675537109376	833.8970336914065	-1254.313354492188	-242.5790557861329	821.8831787109377	-1308.217163085938	-276.5714111328126	767.4526977539064	-1326.408935546875	-348.1844787597657	808.3110961914065	-1351.546630859375	-490.8779907226564	694.1132202148439	-1128.435180664063	-443.5069580078126	638.3176269531251	-1141.666137695313	-489.6751403808595	681.3543701171876	-1050.010498046875	-140.0970458984375	1001.534240722656	-773.9556274414065	-182.1975402832032	874.8586425781252	-586.7258911132814	-201.1093750000001	831.5654907226565	-595.7176513671876	-211.4467163085938	833.7763671875002	-536.8385620117189	-251.805892944336	779.816589355469	-502.5094299316407	-318.3474731445313	827.9643554687502	-476.9215698242189	-458.7056274414064	681.4975585937501	-667.9654541015626	-410.506072998047	628.3159790039064	-661.1253662109376	-456.2046508789064	675.9219360351564	-741.3870849609376	-465.5475158691407	652.7152099609376	-1020.255554199219	-447.8964843750001	664.7302856445314	-774.8050537109377	-584.6953125000001	762.9491577148439	-888.6079101562502	-616.9071044921876	744.1030273437501	-913.1729736328127	-608.5514526367189	743.4587402343751	-856.7444458007815	-398.7785644531251	557.4053344726564	-1169.544311523438	-316.9831237792969	548.6300048828126	-1199.553344726563	-289.3072204589844	579.0525512695314	-1172.61962890625	-289.9363708496094	494.660858154297	-1212.16064453125	-246.2066955566407	456.707000732422	-1215.531127929688	-213.0146179199219	443.3366088867189	-1110.689331054688	-241.2133026123047	281.7921447753907	-1138.356811523438	-310.5660705566407	256.3063354492188	-1189.003784179688	-276.8187561035157	241.8513641357422	-1164.4033203125	-311.5953979492188	177.471923828125	-1121.021118164063	-439.4140930175782	81.86878204345705	-1119.380126953125	-389.8045043945314	98.41989898681643	-1051.961059570313	-484.4989013671876	44.65171432495118	-1058.894165039063	-276.2945861816407	45.44226837158204	-1093.984252929688	-279.2769470214844	50.30134582519533	-1144.56494140625	-328.2259216308594	30.78357887268067	-1183.745483398438	-402.4358825683595	537.6135253906251	-671.5458374023439	-337.3860168457032	538.5598144531251	-656.0668945312501	-317.8402099609376	567.0169677734376	-660.0221557617189	-285.4489440917969	469.014129638672	-657.2645874023439	-193.6421508789063	423.3455505371095	-653.3745117187501	-182.1201782226563	423.096893310547	-765.7222900390626	-208.2614746093751	262.7666931152344	-694.3616333007814	-319.5200195312501	227.0590209960938	-670.9662475585939	-276.2226562500001	210.4834289550782	-681.5039062500001	-285.4593200683594	162.9520263671875	-714.5256958007814	-404.1138000488282	87.43691253662111	-700.9525756835939	-363.6978454589844	87.42455291748048	-777.1062011718752	-462.6486816406251	40.12613677978516	-773.5705566406252	-250.9569396972657	47.76164245605469	-715.2464599609376	-264.1688842773438	53.71588134765626	-671.1050415039064	-315.6258239746094	35.96675109863282	-635.7010498046876	-164.6565551757813	961.2830200195315	-929.582702636719	
1162	5.805	-105.6899795532227	1255.3291015625	-945.9561157226565	-245.7958221435547	1164.079833984375	-996.4061279296877	-226.9795684814454	1160.291015625	-851.0156250000002	-270.0274047851563	1062.208374023438	-915.9924926757815	-457.8549804687501	863.7291259765627	-902.1597900390627	-163.2117004394532	1011.0185546875	-1084.90625	-221.6006317138672	878.551940917969	-1275.146728515625	-222.0232086181641	833.506774902344	-1254.255493164063	-242.6953735351563	821.750915527344	-1308.115112304688	-276.6499023437501	767.2699584960939	-1326.410278320313	-348.2537841796876	808.2406005859377	-1351.528686523438	-490.9909667968751	694.1528930664064	-1128.451171875	-443.7095336914064	638.3596801757814	-1141.69140625	-489.8472595214845	681.3916015625001	-1050.034790039063	-139.9637298583985	1001.392761230469	-773.9873657226565	-182.1674499511719	874.6413574218752	-586.7307739257814	-201.0843658447266	831.327819824219	-595.8262329101564	-211.3551177978516	833.5731201171877	-536.8894042968751	-251.7473602294922	779.6867675781252	-502.6072387695314	-318.1963500976563	827.9146118164065	-476.9515686035157	-458.7983703613282	681.5520019531251	-668.0372924804689	-410.6893310546876	628.3630371093751	-661.2019653320314	-456.369110107422	675.9392700195314	-741.4217529296876	-465.6692199707032	652.7998657226564	-1020.299621582031	-447.9530334472657	664.8400268554689	-774.8824462890627	-584.8966674804689	763.1777343750001	-888.5957031250002	-617.0368041992189	744.1815185546876	-913.2424316406252	-608.7266235351564	743.5408325195314	-856.736022949219	-398.8636779785157	557.4605712890626	-1169.464599609375	-317.0427246093751	548.7147827148439	-1199.505004882813	-289.4618225097657	579.1320800781251	-1172.511108398438	-290.0284423828126	494.7864685058595	-1212.017211914063	-246.2391967773438	456.7521972656251	-1215.33154296875	-213.0412902832032	443.5105895996095	-1110.34521484375	-241.3367156982422	281.7811889648438	-1138.2529296875	-310.5612792968751	256.2978820800782	-1188.898681640625	-276.8089599609376	241.8519439697266	-1164.305297851563	-311.6282958984376	177.4940032958985	-1120.9873046875	-439.4001770019532	81.88851165771486	-1119.387084960938	-389.8289184570314	98.41712188720706	-1051.940673828125	-484.4955444335939	44.6444435119629	-1058.897705078125	-276.3154907226563	45.48361968994141	-1093.9501953125	-279.2688293457032	50.31606674194337	-1144.583129882813	-328.2709350585938	30.77147865295411	-1183.7216796875	-402.557098388672	537.6849975585939	-671.6613159179689	-337.5100402832032	538.6448974609376	-656.1469726562501	-317.9732360839844	566.9937744140626	-660.1447143554689	-285.5570373535157	469.1526794433595	-657.4044189453126	-193.7559509277344	423.4993286132814	-653.6080322265626	-182.3449249267578	423.2866210937501	-765.9306030273439	-208.3325958251954	262.9120178222657	-694.5294189453126	-319.5186767578126	227.0526885986329	-671.0391235351564	-276.2399291992188	210.5401611328126	-681.6414794921876	-285.5919189453126	162.9539337158203	-714.7495117187501	-404.0881652832032	87.48287200927736	-700.9696655273439	-363.7359313964844	87.38124084472658	-777.126647949219	-462.6650695800782	40.06406784057618	-773.6033325195315	-250.9552764892579	47.66529083251954	-715.2745971679689	-264.2054138183594	53.79855346679689	-671.1561279296876	-315.5737304687501	35.99182128906251	-635.7249145507814	-164.5064239501953	961.1663208007815	-929.6124267578127	
